<?xml version="1.0" encoding="UTF-8" standalone="no"?>
<svg
   xmlns:dc="http://purl.org/dc/elements/1.1/"
   xmlns:cc="http://creativecommons.org/ns#"
   xmlns:rdf="http://www.w3.org/1999/02/22-rdf-syntax-ns#"
   xmlns:svg="http://www.w3.org/2000/svg"
   xmlns="http://www.w3.org/2000/svg"
   xmlns:sodipodi="http://sodipodi.sourceforge.net/DTD/sodipodi-0.dtd"
   xmlns:inkscape="http://www.inkscape.org/namespaces/inkscape"
   sodipodi:docname="minerals.svg"
   inkscape:version="1.0 (4035a4fb49, 2020-05-01)"
   id="svg8"
   version="1.1"
   viewBox="0 0 12.7 12.7"
   height="48"
   width="48">
  <defs
     id="defs2" />
  <sodipodi:namedview
     inkscape:snap-nodes="false"
     inkscape:window-maximized="0"
     inkscape:window-y="167"
     inkscape:window-x="1834"
     inkscape:window-height="967"
     inkscape:window-width="1374"
     units="px"
     showgrid="false"
     inkscape:document-rotation="0"
     inkscape:current-layer="layer1"
     inkscape:document-units="mm"
     inkscape:cy="44.975366"
     inkscape:cx="19.420272"
     inkscape:zoom="5.6"
     inkscape:pageshadow="2"
     inkscape:pageopacity="0.0"
     borderopacity="1.0"
     bordercolor="#666666"
     pagecolor="#ffffff"
     id="base" />
  <metadata
     id="metadata5">
    <rdf:RDF>
      <cc:Work
         rdf:about="">
        <dc:format>image/svg+xml</dc:format>
        <dc:type
           rdf:resource="http://purl.org/dc/dcmitype/StillImage" />
        <dc:title></dc:title>
      </cc:Work>
    </rdf:RDF>
  </metadata>
  <g
     id="layer1"
     inkscape:groupmode="layer"
     inkscape:label="Laag 1">
    <path
       id="path3873"
       d="M 5.9484002,4.8096437 3.5860489,5.3293611 3.0190847,6.4632895 c 0,0 1.1339285,1.133929 1.3229166,1.133929 0.1889881,0 1.2284225,-0.614212 1.2284225,-0.614212 l 1.0866816,0.425224 -0.047247,-1.9843754 z"
       style="fill:none;fill-opacity:1;stroke-width:0.264583px;stroke-linecap:butt;stroke-linejoin:miter;stroke-opacity:1" />
    <path
       style="fill:none;fill-opacity:1;stroke-width:0.264583px;stroke-linecap:butt;stroke-linejoin:miter;stroke-opacity:1"
       d="M 11.169196,7.2428653 8.806845,7.7625827 8.2398808,8.8965108 c 0,0 1.1339285,1.1339292 1.3229166,1.1339292 0.1889881,0 1.2284226,-0.6142122 1.2284226,-0.6142122 l 1.086682,0.425225 -0.04725,-1.9843761 z"
       id="path3873-2" />
    <path
       style="fill:none;fill-opacity:1;stroke-width:0.264583px;stroke-linecap:butt;stroke-linejoin:miter;stroke-opacity:1"
       d="M 9.3625646,4.9261587 7.1479038,5.8988293 6.8141936,7.1218908 c 0,0 1.33419,0.8896776 1.5195122,0.8526349 0.1853223,-0.037043 1.0842054,-0.8430759 1.0842054,-0.8430759 l 1.1489488,0.20398 -0.435279,-1.9366233 z"
       id="path3873-5" />
    <path
       style="fill:none;fill-opacity:1;stroke-width:0.264583px;stroke-linecap:butt;stroke-linejoin:miter;stroke-opacity:1"
       d="M 5.4266128,10.318809 7.7610237,9.6852988 8.2724092,8.5252435 c 0,0 -1.1875116,-1.0776846 -1.3762779,-1.0685323 -0.1887664,0.00915 -1.1972364,0.6729813 -1.1972364,0.6729813 l -1.1059993,-0.3721 0.1432903,1.9797593 z"
       id="path3873-8" />
    <path
       style="fill:none;fill-opacity:1;stroke-width:0.264583px;stroke-linecap:butt;stroke-linejoin:miter;stroke-opacity:1"
       d="M 3.7514137,7.3846064 1.3890623,7.9043242 0.82209794,9.0382528 c 0,0 1.13392866,1.1339282 1.32291676,1.1339282 0.1889881,0 1.2284225,-0.6142112 1.2284225,-0.6142112 L 4.4601189,9.9831934 4.4128719,7.9988182 Z"
       id="path3873-6" />
    <path
       style="fill:none;fill-opacity:1;stroke-width:0.264583px;stroke-linecap:butt;stroke-linejoin:miter;stroke-opacity:1"
       d="M 7.7616008,5.5715812 9.2698267,3.6805326 8.9964455,2.4425889 c 0,0 -1.5948856,-0.1671205 -1.7417194,-0.04814 C 7.1078925,2.5134294 6.6869937,3.645032 6.6869937,3.645032 L 5.574993,3.9987931 6.8609962,5.5108029 Z"
       id="path3873-3" />
  </g>
</svg>
