<?xml version="1.0" encoding="UTF-8" standalone="no"?>
<svg
   xmlns:dc="http://purl.org/dc/elements/1.1/"
   xmlns:cc="http://creativecommons.org/ns#"
   xmlns:rdf="http://www.w3.org/1999/02/22-rdf-syntax-ns#"
   xmlns:svg="http://www.w3.org/2000/svg"
   xmlns="http://www.w3.org/2000/svg"
   xmlns:sodipodi="http://sodipodi.sourceforge.net/DTD/sodipodi-0.dtd"
   xmlns:inkscape="http://www.inkscape.org/namespaces/inkscape"
   width="48"
   height="48"
   viewBox="0 0 12.7 12.7"
   version="1.1"
   id="svg8"
   inkscape:version="1.0 (4035a4fb49, 2020-05-01)"
   sodipodi:docname="discovery.svg">
  <defs
     id="defs2" />
  <sodipodi:namedview
     id="base"
     pagecolor="#ffffff"
     bordercolor="#666666"
     borderopacity="1.0"
     inkscape:pageopacity="0.0"
     inkscape:pageshadow="2"
     inkscape:zoom="5.6"
     inkscape:cx="12.578076"
     inkscape:cy="0.86722564"
     inkscape:document-units="mm"
     inkscape:current-layer="layer2"
     inkscape:document-rotation="0"
     showgrid="false"
     units="px"
     inkscape:window-width="1374"
     inkscape:window-height="967"
     inkscape:window-x="902"
     inkscape:window-y="116"
     inkscape:window-maximized="0" />
  <metadata
     id="metadata5">
    <rdf:RDF>
      <cc:Work
         rdf:about="">
        <dc:format>image/svg+xml</dc:format>
        <dc:type
           rdf:resource="http://purl.org/dc/dcmitype/StillImage" />
        <dc:title />
      </cc:Work>
    </rdf:RDF>
  </metadata>
  <g
     inkscape:label="Laag 1"
     inkscape:groupmode="layer"
     id="layer1">
    <circle
       style="fill:none;fill-opacity:1;stroke-width:0.564999;stroke-linecap:butt;stroke-linejoin:round;stroke-miterlimit:4;stroke-dasharray:none;stroke-opacity:1"
       id="path866"
       cx="8.4290724"
       cy="6.3499999"
       r="3.5789621" />
    <path
       style="fill:none;stroke-width:0.264583px;stroke-linecap:butt;stroke-linejoin:miter;stroke-opacity:1"
       d="M 8.464508,9.9762092 C 6.05491,6.8106588 8.511755,2.7474148 8.511755,2.7474148 c -0.023623,0 -5.3861609,3.7088909 -0.047247,7.2287944 z"
       id="path868"
       sodipodi:nodetypes="ccc" />
    <path
       style="fill:none;stroke-width:0.264583px;stroke-linecap:butt;stroke-linejoin:miter;stroke-opacity:1"
       d="m 8.464508,9.976209 c 2.267857,-3.8742561 0.047247,-7.2287942 0.047247,-7.2287942 0,0 5.031807,3.7797614 -0.047247,7.2287944"
       id="path870"
       sodipodi:nodetypes="ccc" />
    <path
       style="fill:none;stroke-width:0.264583px;stroke-linecap:butt;stroke-linejoin:miter;stroke-opacity:1"
       d="m 4.8264873,6.2436946 c 0,0 2.3859746,-0.047247 7.2996647,-0.047247"
       id="path872"
       sodipodi:nodetypes="cc" />
    <path
       style="fill:none;stroke-width:0.264583px;stroke-linecap:butt;stroke-linejoin:miter;stroke-opacity:1"
       d="m 5.9367923,3.8104728 c 0,0 2.3859748,1.5119048 5.0318077,-0.07087"
       id="path874"
       sodipodi:nodetypes="cc" />
    <path
       style="fill:none;stroke-width:0.264583px;stroke-linecap:butt;stroke-linejoin:miter;stroke-opacity:1"
       d="m 5.960416,9.0785159 c 0,0 1.8990129,-1.4769758 5.055431,-0.070872"
       id="path876"
       sodipodi:nodetypes="cc" />
  </g>
  <g
     inkscape:groupmode="layer"
     id="layer2"
     inkscape:label="Laag 2">
    <path
       d="m 0.42114,4.7858248 a 1.1419068,1.857823 0 0 1 0.050069,-0.00178 1.1419068,1.857823 0 0 1 1.1419074,1.8578235 v 0 A 1.1419068,1.857823 0 0 1 0.471209,8.4996835 1.1419068,1.857823 0 0 1 0.430632,8.4984835"
       style="fill:none;stroke-width:0.32844;stroke-linecap:butt;stroke-linejoin:round;stroke-miterlimit:4;stroke-dasharray:none;stroke-opacity:1"
       id="path833" />
    <path
       id="path833-6"
       style="fill:none;stroke-width:0.375058;stroke-linecap:butt;stroke-linejoin:round;stroke-miterlimit:4;stroke-dasharray:none;stroke-opacity:1"
       d="m 0.94697851,3.7319278 a 1.6481957,2.7676769 0 0 1 0.072275,-0.00265 1.6481957,2.7676769 0 0 1 1.6481952,2.7676792 v 0 a 1.6481957,2.7676769 0 0 1 -1.6481952,2.7676755 1.6481957,2.7676769 0 0 1 -0.058573,-0.0018" />
    <path
       id="path833-1"
       style="fill:none;stroke-width:0.335829;stroke-linecap:butt;stroke-linejoin:round;stroke-miterlimit:4;stroke-dasharray:none;stroke-opacity:1"
       d="m 1.8860491,2.9242553 a 1.8130536,3.5050256 0 0 1 0.079501,-0.00341 1.8130536,3.5050256 0 0 1 1.8130533,3.5050289 v 0 a 1.8130536,3.5050256 0 0 1 -1.8130536,3.5050223 1.8130536,3.5050256 0 0 1 -0.064437,-0.0023" />
  </g>
</svg>
