<?xml version="1.0" encoding="UTF-8" standalone="no"?>
<svg
   xmlns:dc="http://purl.org/dc/elements/1.1/"
   xmlns:cc="http://creativecommons.org/ns#"
   xmlns:rdf="http://www.w3.org/1999/02/22-rdf-syntax-ns#"
   xmlns:svg="http://www.w3.org/2000/svg"
   xmlns="http://www.w3.org/2000/svg"
   xmlns:sodipodi="http://sodipodi.sourceforge.net/DTD/sodipodi-0.dtd"
   xmlns:inkscape="http://www.inkscape.org/namespaces/inkscape"
   sodipodi:docname="xeno.svg"
   inkscape:version="1.0 (4035a4fb49, 2020-05-01)"
   id="svg8"
   version="1.1"
   viewBox="0 0 12.7 12.7"
   height="48"
   width="48">
  <defs
     id="defs2" />
  <sodipodi:namedview
     inkscape:window-maximized="0"
     inkscape:window-y="116"
     inkscape:window-x="902"
     inkscape:window-height="967"
     inkscape:window-width="1374"
     units="px"
     showgrid="false"
     inkscape:document-rotation="0"
     inkscape:current-layer="layer1"
     inkscape:document-units="mm"
     inkscape:cy="25.340893"
     inkscape:cx="21.44069"
     inkscape:zoom="11.2"
     inkscape:pageshadow="2"
     inkscape:pageopacity="0.0"
     borderopacity="1.0"
     bordercolor="#666666"
     pagecolor="#ffffff"
     id="base" />
  <metadata
     id="metadata5">
    <rdf:RDF>
      <cc:Work
         rdf:about="">
        <dc:format>image/svg+xml</dc:format>
        <dc:type
           rdf:resource="http://purl.org/dc/dcmitype/StillImage" />
        <dc:title></dc:title>
      </cc:Work>
    </rdf:RDF>
  </metadata>
  <g
     id="layer1"
     inkscape:groupmode="layer"
     inkscape:label="Laag 1">
    <path
       sodipodi:nodetypes="csccscssccscc"
       id="path1515"
       d="m 8.3673214,10.844139 c 0,0 -1.9422163,-3.4318636 -1.741297,-4.2831786 C 6.8269432,5.7096451 6.9943754,2.650231 6.9943754,2.650231 l 0.4018379,1.4099908 c 0.1087865,1.5694208 0.5124116,2.4289501 0.770189,1.9952701 0.56927,-0.95773 0.7367027,-4.2299725 0.7367027,-4.2299725 0,0 0.3583179,-0.00259 0.5207336,1.056931 C 9.5862543,3.9419731 9.083957,8.0588802 9.2379698,7.7315186 9.4330953,7.31677 10.878808,6.1353026 10.878808,6.1353026 l 0.06697,0.7449009 c 0,0 0.535783,0.053207 -1.0380812,1.729234 C 8.8586021,9.7266304 9.3719127,10.5515 9.3719127,10.5515 Z"
       style="fill:none;stroke-width:0.334289px;stroke-linecap:butt;stroke-linejoin:miter;stroke-opacity:1" />
    <path
       id="path1517"
       d="M 9.9076998,6.9334107 10.644402,7.9177438"
       style="fill:none;stroke-width:0.20847;stroke-linecap:butt;stroke-linejoin:miter;stroke-miterlimit:4;stroke-dasharray:none;stroke-opacity:1" />
    <path
       id="path1519"
       d="M 8.635213,3.9006 9.3719157,3.927205"
       style="fill:none;stroke-width:0.20847;stroke-linecap:butt;stroke-linejoin:miter;stroke-miterlimit:4;stroke-dasharray:none;stroke-opacity:1" />
    <path
       id="path1521"
       d="M 8.4677808,5.4968162 H 9.1709969"
       style="fill:none;stroke-width:0.20847;stroke-linecap:butt;stroke-linejoin:miter;stroke-miterlimit:4;stroke-dasharray:none;stroke-opacity:1" />
    <path
       id="path1523"
       d="M 6.8604296,4.778519 7.3627267,4.6188975"
       style="fill:none;stroke-width:0.20847;stroke-linecap:butt;stroke-linejoin:miter;stroke-miterlimit:4;stroke-dasharray:none;stroke-opacity:1" />
    <path
       id="path1525"
       d="m 6.692997,6.0022847 1.0045945,-0.07981"
       style="fill:none;stroke-width:0.20847;stroke-linecap:butt;stroke-linejoin:miter;stroke-miterlimit:4;stroke-dasharray:none;stroke-opacity:1" />
    <path
       id="path1527"
       d="M 9.572835,8.8754735 7.5636459,9.1947169"
       style="fill:none;stroke-width:0.20847;stroke-linecap:butt;stroke-linejoin:miter;stroke-miterlimit:4;stroke-dasharray:none;stroke-opacity:1" />
  </g>
  <g
     inkscape:label="Laag 2"
     id="layer2"
     inkscape:groupmode="layer">
    <path
       id="path833"
       style="fill:none;stroke-width:0.32844;stroke-linecap:butt;stroke-linejoin:round;stroke-miterlimit:4;stroke-dasharray:none"
       d="m 1.5123484,4.9402714 a 1.1419068,1.857823 0 0 1 0.050069,-0.00178 1.1419068,1.857823 0 0 1 1.1419074,1.8578235 v 0 a 1.1419068,1.857823 0 0 1 -1.1419074,1.8578152 1.1419068,1.857823 0 0 1 -0.040577,-0.0012" />
    <path
       d="m 2.0381869,3.8863744 a 1.6481957,2.7676769 0 0 1 0.072275,-0.00265 1.6481957,2.7676769 0 0 1 1.6481952,2.7676792 v 0 a 1.6481957,2.7676769 0 0 1 -1.6481952,2.7676755 1.6481957,2.7676769 0 0 1 -0.058573,-0.0018"
       style="fill:none;stroke-width:0.375058;stroke-linecap:butt;stroke-linejoin:round;stroke-miterlimit:4;stroke-dasharray:none"
       id="path833-6" />
    <path
       d="m 2.9772575,3.0787019 a 1.8130536,3.5050256 0 0 1 0.079501,-0.00341 1.8130536,3.5050256 0 0 1 1.8130533,3.5050289 v 0 a 1.8130536,3.5050256 0 0 1 -1.8130536,3.5050222 1.8130536,3.5050256 0 0 1 -0.064437,-0.0023"
       style="fill:none;stroke-width:0.335829;stroke-linecap:butt;stroke-linejoin:round;stroke-miterlimit:4;stroke-dasharray:none"
       id="path833-1" />
  </g>
</svg>
