<?xml version="1.0" encoding="UTF-8" standalone="no"?>
<svg
   xmlns:dc="http://purl.org/dc/elements/1.1/"
   xmlns:cc="http://creativecommons.org/ns#"
   xmlns:rdf="http://www.w3.org/1999/02/22-rdf-syntax-ns#"
   xmlns:svg="http://www.w3.org/2000/svg"
   xmlns="http://www.w3.org/2000/svg"
   id="svg8"
   version="1.1"
   viewBox="0 0 33.866666 33.866666"
   width="100%"
   heigh="100%">
  <defs
     id="defs2" />
  <g
     id="layer2">
    <ellipse
       ry="12.199084"
       rx="12.611613"
       cy="17.261606"
       cx="16.939653"
       id="path4591"
       style="fill:none;" />
    <ellipse
       ry="10.462612"
       rx="11.170359"
       cy="16.257526"
       cx="17.001616"
       id="path4593"
       style="fill:none;" />
    <ellipse
       ry="7.3106747"
       rx="7.7173648"
       cy="14.816221"
       cx="17.179539"
       id="path4595"
       style="fill:none;" />
    <ellipse
       ry="5.1143866"
       rx="5.4258108"
       cy="14.046671"
       cx="17.179541"
       id="path4597"
       style="fill:none;" />
    <path
       transform="matrix(1.0755915,0,0,1.1335173,53.331123,119.54968)"
       d="m -41.493595,-99.033098 -0.574111,-0.260947 -0.540434,0.325004 0.07077,-0.626649 -0.476101,-0.41355 0.617846,-0.12634 0.246188,-0.5806 0.311085,0.54857 0.628253,0.0547 -0.425585,0.465377 z"
       id="path4603"
       style="fill-opacity:1" />
    <path
       transform="matrix(0.8979264,0,0,0.89547291,41.524,99.915941)"
       d="m -41.493595,-99.033098 -0.574111,-0.260947 -0.540434,0.325004 0.07077,-0.626649 -0.476101,-0.41355 0.617846,-0.12634 0.246188,-0.5806 0.311085,0.54857 0.628253,0.0547 -0.425585,0.465377 z"
       id="path4603-3"
       style="fill-opacity:1" />
    <path
       transform="matrix(0.69952726,0,0,0.58391966,31.966121,73.277564)"
       d="m -41.493595,-99.033098 -0.574111,-0.260947 -0.540434,0.325004 0.07077,-0.626649 -0.476101,-0.41355 0.617846,-0.12634 0.246188,-0.5806 0.311085,0.54857 0.628253,0.0547 -0.425585,0.465377 z"
       id="path4603-1"
       style="fill-opacity:1" />
    <path
       transform="matrix(0.60472079,0,0,0.54254484,28.106159,72.6639)"
       d="m -41.493595,-99.033098 -0.574111,-0.260947 -0.540434,0.325004 0.07077,-0.626649 -0.476101,-0.41355 0.617846,-0.12634 0.246188,-0.5806 0.311085,0.54857 0.628253,0.0547 -0.425585,0.465377 z"
       id="path4603-14"
       style="fill-opacity:1" />
    <path
       transform="matrix(1.0755915,0,0,1.1335173,71.336904,140.94028)"
       d="m -41.493595,-99.033098 -0.574111,-0.260947 -0.540434,0.325004 0.07077,-0.626649 -0.476101,-0.41355 0.617846,-0.12634 0.246188,-0.5806 0.311085,0.54857 0.628253,0.0547 -0.425585,0.465377 z"
       id="path4603-0"
       style="fill-opacity:1" />
    <path
       transform="matrix(0.8979264,0,0,0.89547291,68.123512,112.90776)"
       d="m -41.493595,-99.033098 -0.574111,-0.260947 -0.540434,0.325004 0.07077,-0.626649 -0.476101,-0.41355 0.617846,-0.12634 0.246188,-0.5806 0.311085,0.54857 0.628253,0.0547 -0.425585,0.465377 z"
       id="path4603-3-4"
       style="fill-opacity:1" />
    <path
       transform="matrix(0.69952726,0,0,0.58391968,61.012076,77.62326)"
       d="m -41.493595,-99.033098 -0.574111,-0.260947 -0.540434,0.325004 0.07077,-0.626649 -0.476101,-0.41355 0.617846,-0.12634 0.246188,-0.5806 0.311085,0.54857 0.628253,0.0547 -0.425585,0.465377 z"
       id="path4603-1-1"
       style="fill-opacity:1" />
    <path
       transform="matrix(0.60472081,0,0,0.54254483,56.484903,69.869069)"
       d="m -41.493595,-99.033098 -0.574111,-0.260947 -0.540434,0.325004 0.07077,-0.626649 -0.476101,-0.41355 0.617846,-0.12634 0.246188,-0.5806 0.311085,0.54857 0.628253,0.0547 -0.425585,0.465377 z"
       id="path4603-14-2"
       style="fill-opacity:1" />
    <path
       transform="matrix(1.3314137,0,0,1.3549668,59.658695,140.80935)"
       d="m -31.805072,-91.282292 -0.445489,-1.60628 -1.62585,-0.598694 1.60628,-0.445489 0.598694,-1.62585 0.445489,1.60628 1.62585,0.598694 -1.60628,0.445489 z"
       id="path4692"
       style="fill-opacity:1" />
    <ellipse
       ry="1.086424"
       rx="1.3344237"
       cy="24.096098"
       cx="9.5733252"
       id="path4694"
       style="fill-opacity:1" />
    <ellipse
       ry="1.1316916"
       rx="1.1565005"
       cy="18.799786"
       cx="23.273409"
       id="path4696"
       style="fill-opacity:1" />
    <ellipse
       ry="0.543212"
       rx="0.66721183"
       cy="5.0836825"
       cx="17.357464"
       id="path4698"
       style="fill-opacity:1" />
  </g>
</svg>
