<?xml version="1.0" encoding="UTF-8" standalone="no"?>
<svg
   xmlns:dc="http://purl.org/dc/elements/1.1/"
   xmlns:cc="http://creativecommons.org/ns#"
   xmlns:rdf="http://www.w3.org/1999/02/22-rdf-syntax-ns#"
   xmlns:svg="http://www.w3.org/2000/svg"
   xmlns="http://www.w3.org/2000/svg"
   id="svg4555"
   version="1.1"
   viewBox="0 0 12.7 12.7"
   height="48"
   width="48">
  <defs
     id="defs4549" />
  <metadata
     id="metadata4552">
    <rdf:RDF>
      <cc:Work
         rdf:about="">
        <dc:format>image/svg+xml</dc:format>
        <dc:type
           rdf:resource="http://purl.org/dc/dcmitype/StillImage" />
        <dc:title></dc:title>
      </cc:Work>
    </rdf:RDF>
  </metadata>
  <g
     transform="translate(0,-284.3)"
     id="layer1">
    <path
       id="path5664"
       d="m 2.0761018,293.47048 c -0.2705139,-0.69826 0.014213,-1.08907 0.8430513,-1.15717 0.8007202,-0.0658 0.814199,-0.0542 0.814199,0.70049 0,0.73463 -0.03281,0.76739 -0.7684377,0.76739 -0.4684806,0 -0.8154256,-0.12128 -0.8888126,-0.31071 z m 2.350671,-0.38977 0.068187,-0.7005 3.1008334,-0.0598 3.1008338,-0.0598 v 0.7603 0.76029 H 7.5276062 4.3585852 Z m -2.2976618,-1.7842 c -0.2798845,-0.72245 -0.1403805,-1.17028 0.4069416,-1.30634 0.8812965,-0.21909 1.2339733,0.0327 1.1567974,0.82592 -0.05944,0.61092 -0.1564311,0.71047 -0.7477302,0.76747 -0.4714146,0.0454 -0.721246,-0.0424 -0.8160088,-0.28705 z m 2.3418116,0.0217 c -0.065549,-0.1692 -0.086956,-0.53292 -0.047571,-0.80827 0.071032,-0.4966 0.096137,-0.50063 3.1180416,-0.50063 h 3.0464328 l 0.06754,0.80826 0.06754,0.80827 H 7.6565004 c -2.4555078,0 -3.0901409,-0.0613 -3.1855778,-0.30763 z M 2.0331471,288.3389 c 0.062252,-0.63951 0.1392174,-0.70631 0.8841962,-0.76738 0.8027944,-0.0658 0.8160088,-0.0545 0.8160088,0.70049 0,0.75358 -0.015899,0.76739 -0.8841963,0.76739 -0.8664738,0 -0.8828296,-0.014 -0.8160087,-0.7005 z m 2.3936257,0 0.068187,-0.70049 3.1008334,-0.0598 3.1008338,-0.0598 v 0.76029 0.7603 H 7.5276062 4.3585852 Z"
       style="stroke-width:0.21656698" />
  </g>
</svg>
