<?xml version="1.0" encoding="UTF-8" standalone="no"?>
<!-- Created with Inkscape (http://www.inkscape.org/) -->

<svg
   xmlns:dc="http://purl.org/dc/elements/1.1/"
   xmlns:cc="http://creativecommons.org/ns#"
   xmlns:rdf="http://www.w3.org/1999/02/22-rdf-syntax-ns#"
   xmlns:svg="http://www.w3.org/2000/svg"
   xmlns="http://www.w3.org/2000/svg"
   xmlns:sodipodi="http://sodipodi.sourceforge.net/DTD/sodipodi-0.dtd"
   xmlns:inkscape="http://www.inkscape.org/namespaces/inkscape"
   width="100%"
   height="100%"
   viewBox="0 0 16.933333 16.933333"
   version="1.1"
   id="svg8"
   inkscape:version="0.92.4 (5da689c313, 2019-01-14)"
   sodipodi:docname="station.svg">
  <defs
     id="defs2" />
  <g
     inkscape:label="Laag 1"
     inkscape:groupmode="layer"
     id="layer1"
     transform="translate(0,-280.06667)">
    <path
       style="fill-opacity:1;stroke:none;stroke-opacity:1"
       d="m 6.5460541,295.66134 c -2.1629538,-0.59271 -3.9946788,-2.07065 -5.0373291,-4.06441 -0.51853502,-0.99154 -0.5703937,-1.28001 -0.5703937,-3.17295 0,-1.89684 0.0523814,-2.18669 0.5882218,-3.25512 0.7151819,-1.42601 2.0516264,-2.72022 3.5558772,-3.44348 1.0150796,-0.48809 1.3355503,-0.5397 3.3505891,-0.5397 2.6201896,0 3.4250416,0.27851 5.1084246,1.76772 2.574277,2.27737 3.196923,6.01605 1.515078,9.09734 -1.524456,2.79297 -5.4369256,4.45285 -8.5104679,3.6106 z m 4.8569549,-0.85125 c 1.514228,-0.73013 2.717196,-1.90327 3.45382,-3.36816 0.595144,-1.18354 0.665662,-1.50321 0.66482,-3.01378 -7.66e-4,-1.44115 -0.08663,-1.87174 -0.583278,-2.92612 -2.496481,-5.30016 -10.0754104,-5.4432 -12.987244,-0.2451 -0.5608155,1.00114 -0.6076773,1.23773 -0.6076773,3.06789 0,1.75513 0.063137,2.10896 0.5492002,3.07789 0.844414,1.68326 2.3782038,3.04507 4.1507106,3.68528 1.222574,0.44158 4.1861785,0.28792 5.3596485,-0.2779 z m -4.5904649,0.16744 c -2.0865737,-0.50948 -4.0827104,-2.1493 -4.7537514,-3.90519 -1.38235401,-3.61715 -0.048071,-7.08083 3.3585242,-8.71841 1.0469276,-0.50326 1.4154384,-0.57332 3.0157025,-0.57332 1.5820046,0 1.9741116,0.0726 2.9657706,0.54941 1.399338,0.67278 2.670306,1.98549 3.369025,3.47966 0.420102,0.89839 0.525561,1.42881 0.525561,2.64343 0,1.31017 -0.08972,1.69796 -0.651184,2.81453 -1.447953,2.87951 -4.7747014,4.45581 -7.8296479,3.70989 z m 4.3877089,-0.87652 c 1.253703,-0.58287 2.3263,-1.61828 3.047007,-2.94134 0.389809,-0.71562 0.464063,-1.15287 0.464529,-2.73569 5.68e-4,-1.88653 -0.194708,-2.58957 -1.013877,-3.65026 -0.278824,-0.36103 -0.328953,-0.3386 -1.107675,0.49578 -0.634113,0.67942 -0.791141,0.98425 -0.70558,1.36969 0.283509,1.27725 0.322246,2.39418 0.105356,3.03759 -0.300743,0.89216 -1.575001,2.02912 -2.5804954,2.30248 -1.0038633,0.27289 -1.0967509,0.26891 -2.1881737,-0.0938 l -0.9220006,-0.30645 -1.0157363,0.83851 c -1.1903241,0.98263 -1.1456565,1.09654 0.7343176,1.87243 1.5978526,0.65946 3.5073337,0.58987 5.1823334,-0.18888 z M 6.555555,290.8017 c 0.5773067,-0.47985 0.5854219,-0.50962 0.225363,-0.82692 -0.3545313,-0.31245 -0.4377419,-0.25521 -1.6394847,1.12746 -0.6962974,0.80114 -1.2659945,1.56083 -1.2659945,1.68821 0,0.12737 0.468281,-0.156 1.0406254,-0.6297 0.5723443,-0.4737 1.3101163,-1.08528 1.6394908,-1.35905 z m -1.5861952,-0.69209 c -0.075937,-0.21814 -0.1783627,-0.89884 -0.2276178,-1.51266 -0.069522,-0.86637 0.00575,-1.2989 0.3363093,-1.93331 0.8300852,-1.59297 2.9342525,-2.39211 4.5539551,-1.72956 0.8576006,0.35082 0.8795106,0.34293 2.0925986,-0.75273 0.362073,-0.32703 0.658314,-0.65215 0.658314,-0.7225 0,-0.0703 -0.478541,-0.38747 -1.063435,-0.70475 -0.954361,-0.51771 -1.250417,-0.57667 -2.8864646,-0.57504 -1.5766765,0.002 -1.9598941,0.0724 -2.83583,0.52481 -2.378663,1.22829 -3.6362476,3.21264 -3.6251513,5.72011 0.00651,1.47014 0.2905444,2.44779 1.0347273,3.56148 l 0.3258826,0.48771 0.8873874,-0.98347 c 0.6638668,-0.73575 0.8526108,-1.08338 0.7493244,-1.38009 z m 4.5336002,1.37765 c 1.804574,-0.738 2.69687,-2.53905 2.064572,-4.16725 -0.203904,-0.52507 -0.215297,-0.52813 -0.622691,-0.16718 -0.273157,0.24201 -0.383194,0.53048 -0.321963,0.84406 0.276251,1.41482 -0.8256678,2.60634 -2.4116617,2.60775 -0.5636107,5e-4 -0.9437276,0.12433 -1.1859028,0.38632 -0.345023,0.37325 -0.3346953,0.3917 0.323089,0.57705 0.9812181,0.27648 1.3112969,0.2641 2.1545575,-0.0808 z m 0.1158324,-1.76479 c 1.1875566,-1.07751 0.4120256,-3.08328 -1.1921501,-3.08328 -0.968877,0 -1.917933,0.88317 -1.917933,1.78479 0,0.42686 0.1879875,0.80948 0.5920978,1.20511 0.7648122,0.74878 1.7551711,0.78551 2.5179853,0.0934 z m -1.3569408,-1.06622 c -0.3686028,-0.39876 -0.4432695,-0.8272 -0.1441583,-0.8272 0.2041031,0 0.8217252,0.77843 0.8217252,1.03568 0,0.26873 -0.3304233,0.16707 -0.6775669,-0.20848 z m -2.1281759,-0.0631 c -0.069973,-0.65314 0.4183117,-1.62394 1.0266245,-2.04109 0.2482385,-0.17022 0.8238227,-0.3095 1.2790735,-0.3095 0.8930001,0 1.6593743,-0.40066 1.4377856,-0.75168 -0.07533,-0.11933 -0.534733,-0.27535 -1.0209132,-0.34674 -1.1368293,-0.16689 -2.5025663,0.39588 -3.1624332,1.30314 -0.5559907,0.76444 -0.7761733,2.47924 -0.4054208,3.15747 l 0.2429499,0.44443 0.3297804,-0.46095 c 0.1813807,-0.25353 0.3040262,-0.70132 0.2725533,-0.99508 z m 5.2553853,-2.58962 c 1.436614,-1.66144 1.654374,-1.95675 1.531561,-2.07698 -0.06393,-0.0626 -0.804585,0.48946 -1.645978,1.22671 -1.215216,1.06478 -1.482556,1.39619 -1.3000346,1.61149 0.3473196,0.40972 0.4495096,0.35473 1.4144516,-0.76122 z"
       id="path3742"
       inkscape:connector-curvature="0"
       sodipodi:nodetypes="sssccsscsccccssccccscsscsccsccccccccccsscccscccccscsccccscsccccccccccsscccsscccscscccccccccc" />
  </g>
</svg>
