<?xml version="1.0" encoding="UTF-8" standalone="no"?>
<!-- Created with Inkscape (http://www.inkscape.org/) -->

<svg
   xmlns:dc="http://purl.org/dc/elements/1.1/"
   xmlns:cc="http://creativecommons.org/ns#"
   xmlns:rdf="http://www.w3.org/1999/02/22-rdf-syntax-ns#"
   xmlns:svg="http://www.w3.org/2000/svg"
   xmlns="http://www.w3.org/2000/svg"
   xmlns:sodipodi="http://sodipodi.sourceforge.net/DTD/sodipodi-0.dtd"
   xmlns:inkscape="http://www.inkscape.org/namespaces/inkscape"
   width="100%"
   height="100%"
   viewBox="0 0 16.933333 16.933333"
   version="1.1"
   id="svg8"
   inkscape:version="0.92.4 (5da689c313, 2019-01-14)"
   sodipodi:docname="system.svg">
  <defs
     id="defs2">
  </defs>
  <g
     inkscape:groupmode="layer"
     id="layer2"
     inkscape:label="Laag 2"
     transform="translate(0,-280.06667)">
    <ellipse
       id="path827"
       cx="6.3249431"
       cy="286.07886"
       rx="4.5593662"
       ry="4.5426617"
       style="fill:none; stroke-width: 0.5"
       transform="matrix(1.0990418,0,0,1.1401868,1.6162566,-37.650001)" />
    <ellipse
       id="path827-5"
       cx="-63.710373"
       cy="103.39664"
       rx="4.5593662"
       ry="4.5426617"
       style="fill:none; stroke-width: 0.5"
       transform="matrix(0.61912059,0,0,0.62775644,47.993683,223.56826)" />
    <ellipse
       style="fill-opacity:1; stroke: none"
       id="path874"
       cx="2.5664737"
       cy="288.50098"
       rx="0.97645622"
       ry="0.8929345"
       transform="matrix(1.0990418,0,0,1.1401868,1.6162566,-37.650001)" />
    <ellipse
       style="fill-opacity:1; stroke: none"
       id="path874-5"
       cx="7.1935725"
       cy="288.6012"
       rx="0.97645622"
       ry="0.8929345"
       transform="matrix(1.0990418,0,0,1.1401868,1.6162566,-37.650001)" />
    <ellipse
       style="fill-opacity:1; stroke: none"
       id="path874-6"
       cx="6.3249507"
       cy="286.02872"
       rx="0.97645622"
       ry="0.8929345"
       transform="matrix(1.0990418,0,0,1.1401868,1.6162566,-37.650001)" />
    <ellipse
       style="fill-opacity:1; stroke: none"
       id="path874-1"
       cx="6.9597087"
       cy="283.58987"
       rx="0.97645622"
       ry="0.8929345"
       transform="matrix(1.0990418,0,0,1.1401868,1.6162566,-37.650001)" />
    <ellipse
       style="fill-opacity:1; stroke: none"
       id="path874-14"
       cx="9.8996763"
       cy="283.22238"
       rx="0.97645622"
       ry="0.8929345"
       transform="matrix(1.0990418,0,0,1.1401868,1.6162566,-37.650001)" />
  </g>
</svg>
