<?xml version="1.0" encoding="UTF-8" standalone="no"?>
<svg
   xmlns:dc="http://purl.org/dc/elements/1.1/"
   xmlns:cc="http://creativecommons.org/ns#"
   xmlns:rdf="http://www.w3.org/1999/02/22-rdf-syntax-ns#"
   xmlns:svg="http://www.w3.org/2000/svg"
   xmlns="http://www.w3.org/2000/svg"
   xmlns:sodipodi="http://sodipodi.sourceforge.net/DTD/sodipodi-0.dtd"
   xmlns:inkscape="http://www.inkscape.org/namespaces/inkscape"
   sodipodi:docname="transaction-bounty.svg"
   inkscape:version="1.0 (4035a4fb49, 2020-05-01)"
   id="svg1550"
   version="1.1"
   viewBox="0 0 12.7 12.7"
   height="100%"
   width="100%">
  <defs
     id="defs1544" />
  <g
     id="layer1"
     inkscape:groupmode="layer"
     inkscape:label="Laag 1">
    <path
       sodipodi:nodetypes="ccccccccccc"
       id="path994-3"
       d="m 7.1454214,10.124355 c -0.705717,0.684922 0.179562,0.12537 -0.67231,0.292415 0,0 -2.872698,-0.5013006 -4.008527,-2.9067303 V 6.3740398 L 3.2325394,5.5060397 V 3.1000399 c 0,0 2.13815,-1.8038497 6.080146,-0.23364 l 0.0335,2.6396398 0.8016716,0.8680001 -10e-7,1.1359999 c 0,0 0.202528,-0.039662 -0.0089,0.206743"
       style="display:inline;opacity:0.97;fill:none;stroke-width:0.396875;stroke-linecap:butt;stroke-linejoin:miter;stroke-miterlimit:4;stroke-dasharray:none;stroke-opacity:1;paint-order:normal" />
    <path
       id="path996-6"
       style="display:inline;opacity:0.97;mix-blend-mode:normal;fill:none;fill-opacity:1;stroke-width:0.396875;stroke-linejoin:round;stroke-miterlimit:4;stroke-dasharray:none;stroke-opacity:1;paint-order:normal"
       d="m 6.3866144,8.4122408 c -1.051652,0 -1.929239,-0.7703153 -1.929239,-1.7205476 0,-0.9502322 0.869236,-1.7205476 1.920888,-1.7205476 1.051652,0 1.812316,0.7536112 1.812316,1.7038432"
       sodipodi:nodetypes="cssc" />
    <path
       sodipodi:nodetypes="ccccc"
       id="path1020-2"
       d="m 8.4441114,3.3674498 c -2.271659,-1.0022599 -4.24266,0 -4.24266,0 v 0.936 c 0,0 1.971001,-0.83521 4.24266,0 z"
       style="display:inline;opacity:0.97;fill:none;stroke-width:0.396875;stroke-linecap:butt;stroke-linejoin:miter;stroke-miterlimit:4;stroke-dasharray:none;stroke-opacity:1;paint-order:normal" />
    <path
       style="display:inline;opacity:0.97;fill:none;stroke-width:0.396875;stroke-linecap:butt;stroke-linejoin:miter;stroke-miterlimit:4;stroke-dasharray:none;stroke-opacity:1;paint-order:normal"
       d="m 8.4060664,7.5977432 c 0,0 0.79341,1.1024899 -0.08352,2.3219098"
       id="path1064" />
    <path
       style="display:inline;opacity:0.97;fill:none;stroke-width:0.396875;stroke-linecap:butt;stroke-linejoin:miter;stroke-miterlimit:4;stroke-dasharray:none;stroke-opacity:1;paint-order:normal"
       d="m 9.0073864,7.0130932 c 0,0 1.7622086,1.46998 0.242199,3.3325198"
       id="path1066" />
    <path
       style="display:inline;opacity:0.97;fill-opacity:1;stroke:none;stroke-width:0.396875;stroke-linecap:butt;stroke-linejoin:miter;stroke-miterlimit:4;stroke-dasharray:none;stroke-opacity:1;paint-order:normal;"
       d="m 7.8551674,8.357793 c -0.801806,-0.0501 -1.110837,0.5011301 -1.110837,0.5011301 0,0 0.359144,0.68488 1.069079,0.4844301 z"
       id="path1068"
       sodipodi:nodetypes="cccc" />
  </g>
</svg>
